<?xml version="1.0" standalone="no"?>
<!DOCTYPE svg PUBLIC "-//W3C//DTD SVG 20010904//EN"
 "http://www.w3.org/TR/2001/REC-SVG-20010904/DTD/svg10.dtd">
<svg version="1.0" xmlns="http://www.w3.org/2000/svg"
 width="300.000000pt" height="474.000000pt" viewBox="0 0 300.000000 474.000000"
 preserveAspectRatio="xMidYMid meet">
<metadata>
Created by potrace 1.10, written by Peter Selinger 2001-2011
</metadata>
<g transform="translate(0.000000,474.000000) scale(0.100000,-0.100000)"
fill="#000000" stroke="none">
<path d="M1094 3629 c-17 -19 -18 -47 -19 -532 -1 -282 -5 -518 -9 -525 -4 -8
-22 -13 -40 -12 -17 1 -140 2 -273 1 -236 -1 -243 -2 -263 -23 -19 -21 -20
-34 -20 -273 0 -272 3 -286 55 -299 15 -4 25 -13 25 -24 0 -25 36 -62 60 -62
16 0 20 -7 20 -30 0 -31 30 -70 54 -70 17 0 26 -22 26 -65 0 -29 5 -36 40 -52
35 -16 40 -22 40 -54 0 -38 33 -79 63 -79 11 0 17 -8 17 -24 0 -43 19 -77 50
-89 21 -8 31 -20 36 -42 8 -39 32 -65 59 -65 20 0 23 -5 23 -41 1 -45 22 -76
56 -81 17 -2 22 -12 26 -48 4 -34 11 -47 29 -56 28 -14 48 -9 62 17 6 12 9
256 9 671 0 361 4 659 9 667 7 11 54 14 238 16 125 1 238 -2 250 -6 l23 -8 0
-661 c0 -431 3 -667 10 -680 5 -10 20 -22 31 -25 36 -12 65 30 68 98 1 10 9
17 19 17 28 0 53 34 59 79 4 30 10 41 23 41 23 0 49 30 56 66 4 21 14 34 35
41 30 12 49 46 49 89 0 19 5 24 24 24 29 0 56 38 56 80 0 22 6 33 23 39 36 14
56 43 58 87 2 31 7 40 22 41 29 3 46 22 57 64 6 22 17 39 24 39 17 0 53 40 58
65 2 12 13 21 26 23 12 2 30 15 39 29 14 21 16 58 16 276 -1 246 -2 252 -23
269 -19 16 -46 18 -209 19 -102 0 -214 0 -248 -1 -112 -3 -102 -56 -102 531 0
380 -4 515 -12 526 -20 23 -49 35 -62 26 -13 -10 -24 -10 -50 1 -10 5 -23 3
-31 -4 -11 -9 -20 -9 -36 0 -12 6 -29 8 -38 4 -25 -11 -35 -11 -55 -1 -12 5
-23 4 -33 -4 -12 -9 -20 -9 -38 1 -14 7 -30 9 -38 4 -19 -12 -37 -14 -44 -3
-8 13 -42 11 -47 -3 -3 -10 -9 -10 -29 0 -21 12 -29 12 -47 1 -17 -11 -25 -11
-41 -1 -15 9 -26 10 -41 1 -15 -8 -24 -8 -32 0 -16 16 -38 14 -60 -6 -11 -10
-17 -13 -14 -7 4 7 -3 14 -16 18 -32 8 -32 8 -53 -15z m56 -556 c-1 -546 -1
-548 19 -551 21 -3 21 -3 21 547 0 544 0 551 20 551 20 0 20 -7 20 -550 0
-543 0 -550 20 -550 20 0 20 7 20 550 0 543 0 550 20 550 20 0 20 -7 20 -551
0 -548 0 -550 20 -547 21 3 21 7 20 551 0 542 0 547 20 547 20 0 20 -5 20
-551 l0 -550 21 3 c20 3 20 4 19 551 -1 544 -1 547 20 547 20 0 20 -4 20 -551
l0 -550 23 3 22 3 0 548 c0 514 1 547 18 547 16 0 17 -33 17 -551 l0 -550 23
3 22 3 3 548 c2 477 4 547 17 547 13 0 15 -69 15 -549 l0 -548 25 0 25 0 0
548 c0 481 2 549 15 549 13 0 15 -68 15 -550 l0 -550 25 0 25 0 0 550 c0 517
1 550 18 550 16 0 17 -32 14 -550 l-2 -550 25 0 25 0 0 550 c0 546 0 550 20
550 21 0 21 -4 20 -546 l-1 -545 290 1 291 1 0 -266 c0 -258 -1 -265 -20 -265
-19 0 -20 7 -20 245 l0 245 -22 0 -23 0 3 -290 c3 -287 3 -290 -17 -290 -21 0
-21 4 -21 290 l0 290 -25 0 -26 0 3 -340 c3 -318 2 -340 -14 -340 -17 0 -18
23 -18 340 l0 340 -25 0 -26 0 3 -405 c3 -380 2 -405 -14 -405 -17 0 -18 26
-18 405 l0 405 -25 0 -25 0 2 -465 c3 -437 2 -465 -14 -465 -17 0 -18 29 -18
465 l0 465 -25 0 -25 0 0 -525 c0 -460 -2 -525 -15 -525 -13 0 -15 65 -15 525
l0 525 -25 0 -25 0 0 -575 c0 -541 -1 -575 -17 -575 -17 0 -18 33 -15 575 l2
575 -25 0 -25 0 0 -635 c0 -598 -1 -635 -17 -635 -17 0 -18 36 -15 635 l3 635
-26 0 -25 0 0 -695 c0 -690 0 -695 -20 -695 -20 0 -20 4 -18 695 l3 695 -292
0 -293 0 0 -695 c0 -688 0 -695 -20 -695 -20 0 -20 7 -20 695 l0 695 -22 0
-23 0 3 -635 c2 -631 2 -635 -18 -635 -20 0 -20 5 -20 635 l0 635 -26 0 -25 0
3 -575 c3 -542 2 -575 -14 -575 -17 0 -18 34 -18 575 l0 575 -25 0 -25 0 0
-522 c1 -463 -1 -523 -15 -526 -13 -3 -15 54 -15 522 l0 526 -25 0 -25 0 0
-465 c0 -407 -2 -465 -15 -465 -13 0 -15 58 -15 465 l0 465 -25 0 -25 0 0
-405 c0 -353 -2 -405 -15 -405 -13 0 -15 52 -15 405 l0 405 -25 0 -25 0 0
-340 c0 -317 -1 -340 -17 -340 -17 0 -18 22 -15 340 l3 340 -26 0 -25 0 0
-290 c0 -274 -1 -290 -18 -290 -18 0 -18 14 -14 290 l5 290 -27 0 -26 0 0
-245 c0 -238 -1 -245 -20 -245 -19 0 -20 7 -20 265 l0 266 305 -3 305 -3 0
548 c0 543 0 547 20 547 20 0 20 -4 20 -547z"/>
<path d="M725 3207 c-18 -20 -20 -36 -20 -168 0 -194 -2 -192 145 -187 122 4
149 17 176 84 14 37 14 44 0 78 -10 25 -13 52 -10 80 5 32 2 52 -11 74 -29 48
-59 60 -165 60 -86 1 -97 -1 -115 -21z m212 -23 c27 -5 56 -57 48 -84 -4 -11
-13 -27 -22 -35 -13 -14 -12 -18 11 -36 19 -15 26 -30 26 -54 0 -69 -51 -93
-197 -94 l-63 -1 0 158 0 157 87 -3 c49 -1 98 -5 110 -8z"/>
<path d="M808 3104 c4 -35 4 -35 50 -32 48 3 70 23 59 52 -5 12 -20 16 -60 16
l-53 0 4 -36z"/>
<path d="M808 2980 l-4 -40 47 0 c62 0 79 7 79 34 0 33 -19 46 -71 46 l-47 0
-4 -40z"/>
<path d="M2032 3207 c-12 -13 -22 -29 -22 -35 0 -24 32 -61 61 -71 l29 -10 0
-99 c0 -90 2 -100 23 -120 31 -29 68 -28 96 2 21 22 23 34 22 113 0 48 3 93 7
100 4 6 20 16 35 22 15 6 32 22 39 36 10 22 8 30 -9 53 -20 26 -23 27 -140 30
-114 2 -120 2 -141 -21z m263 -41 c1 -25 -2 -26 -48 -26 l-48 0 2 -127 2 -128
-31 -3 -32 -3 0 130 0 131 -45 0 c-42 0 -45 2 -45 28 l0 27 122 -2 121 -1 2
-26z"/>
<path d="M1460 2184 c-53 -22 -90 -84 -90 -152 0 -103 89 -169 185 -139 49 16
73 45 86 105 21 103 -28 179 -119 187 -26 3 -54 2 -62 -1z m123 -64 c15 -17
27 -39 27 -49 0 -11 3 -26 6 -35 5 -14 -5 -16 -70 -16 -56 0 -76 -3 -76 -13 0
-35 53 -50 74 -21 8 11 20 13 39 9 35 -9 34 -17 -4 -49 -77 -65 -190 3 -174
107 7 51 24 77 60 93 42 19 85 10 118 -26z"/>
<path d="M1482 2098 c-24 -24 -13 -38 28 -38 26 0 40 5 40 13 0 18 -21 37 -40
37 -9 0 -21 -5 -28 -12z"/>
<path d="M1380 1641 c-24 -19 -25 -22 -25 -167 0 -128 2 -150 18 -171 22 -28
66 -30 96 -5 18 14 25 38 30 95 1 4 7 7 15 7 8 0 15 -16 19 -41 9 -72 62 -101
115 -63 21 14 22 21 22 168 0 142 -1 154 -21 172 -45 40 -103 14 -115 -53 -11
-57 -31 -59 -40 -3 -7 42 -42 80 -73 80 -9 0 -27 -9 -41 -19z m77 -81 l-5 -60
59 0 59 0 0 60 0 60 35 0 35 0 0 -155 0 -155 -35 0 -35 0 0 70 0 70 -59 0 -60
0 6 -70 6 -70 -37 0 -36 0 0 155 0 155 36 0 37 0 -6 -60z"/>
</g>
</svg>
